<?xml version="1.0" encoding="UTF-8" standalone="no"?>
<svg
   viewBox="0 0 145.17479 174.11613"
   xml:space="preserve"
   version="1.1"
   id="svg12"
   sodipodi:docname="first_step.svg"
   inkscape:version="1.4 (86a8ad7, 2024-10-11)"
   width="145.17479"
   height="174.11613"
   xmlns:inkscape="http://www.inkscape.org/namespaces/inkscape"
   xmlns:sodipodi="http://sodipodi.sourceforge.net/DTD/sodipodi-0.dtd"
   xmlns="http://www.w3.org/2000/svg"
   xmlns:svg="http://www.w3.org/2000/svg"><defs
   id="defs12" /><sodipodi:namedview
   id="namedview12"
   pagecolor="#ffffff"
   bordercolor="#000000"
   borderopacity="0.25"
   inkscape:showpageshadow="2"
   inkscape:pageopacity="0.0"
   inkscape:pagecheckerboard="0"
   inkscape:deskcolor="#d1d1d1"
   showgrid="false"
   inkscape:zoom="0.98116185"
   inkscape:cx="254.29036"
   inkscape:cy="153.89918"
   inkscape:window-width="1142"
   inkscape:window-height="1032"
   inkscape:window-x="623"
   inkscape:window-y="115"
   inkscape:window-maximized="0"
   inkscape:current-layer="svg12" />  <!-- Path 1 -->
  

  <!-- Path 2 -->
  
<path
   d="m 81.6,50.702937 c -23.6,48.8 -25,51.299983 -27.9,51.899983 -4.2,0.8 -9.4,6.7 -10.2,11.5 -0.9,5.4 2.2,12.3 6.7,15.1 6.9,4.2 16.5,1.7 20.8,-5.2 2,-3.3 2.5,-9.6 1.1,-13.2 -0.5,-1.4 4.9,-13.899983 20.099997,-46.499983 11.500003,-24.5 21.100003,-45.6 21.400003,-46.7 0.5,-1.9 -4.6,-15.6000101 -6.5,-17.60001006 -0.3,-0.3 -11.800003,22.50001006 -25.5,50.70001006 z"
   fill="#000000"
   id="path1"
   style="stroke-width:0.1;paint-order:stroke fill markers" /><path
   d="M 145.17478,87.202937 H 128.3 l -9.9,-20.7 -10,-20.8 -2.8,6 c -5.999999,12.8 -5.999999,10.7 -0.1,23.5 l 5.2,11.5 -10.6,0.3 -10.700003,0.3 -3.6,7.9 -3.6,7.999983 H 100.2 h 18 l 3.6,8 3.6,8 h 8.9 c 10.2,0 9.9,0.5 4.6,-10.3 l -2.9,-5.7 h 9.08222 z"
   id="LetterA"
   style="stroke-width:0.1" /><path
   class="st1"
   d="m 45.5,59.602937 c -21.7,5 -39.5,22.6 -44,43.499983 -0.7,3.3 -0.7,3.4 2.1,2.7 5.3,-1.3 12.1,-6.599983 20.4,-15.599983 11,-12.1 17.2,-15.2 31.3,-15.8 l 9.8,-0.4 3.4,-6.9 c 2.2,-4.2 3.1,-7 2.4,-7.4 -2.2,-1.4 -19.5,-1.4 -25.4,-0.1 z M 13.2,102.70292 c -2.9,2.9 -7,6 -9.2,7 -3.9,1.8 -4,1.9 -4,6.9 0.1,21.1 13.1,41.9 31.8,51.1 5.7,2.8 14.2,5.5 17.5,5.5 3.4,0 1.2,-6.1 -5.2,-14 l -3.6,-4.5 3.5,2.9 c 4.6,3.8 9.3,9.3 11.4,13.3 1.9,3.8 3.5,4 14.1,1.8 19.299997,-4.1 35.6,-18 42.6,-36.5 l 2,-5.3 -4.2,0.6 c -2.3,0.3 -6.8,1.9 -9.999999,3.5 -4.700004,2.3 -5.500004,2.5 -4.200004,0.9 2.400001,-2.6 9.100003,-6.4 14.500003,-8.3 5,-1.7 5.8,-3.3 5.8,-11.9 0,-7.4 -0.2,-7.5 -9.7,-7.5 h -8.600002 l 0.7,3.8 c 1.500003,9.9 -3.900001,24.6 -12.200001,32.9 -7.599997,7.6 -16.299997,11.6 -26.699997,12.1 -5.6,0.3 -9.9,-0.1 -13.5,-1.1 -3,-0.9 -5.7,-1.4 -6.2,-1.1 -0.4,0.3 -0.8,0.1 -0.8,-0.4 0,-0.6 -1.9,-2.1 -4.3,-3.5 -6.2,-3.6 -12.4,-10.8 -16,-18.5 -2.9,-6.2 -3.2,-7.5 -3.2,-16.7 0.1,-7.2 0.6,-11.1 1.8,-13.9 1,-2.199983 1.6,-3.999983 1.5,-4.099983 -0.2,-0.1 -2.7,2.1 -5.6,4.999983 z"
   fill="#000000"
   id="path11"
   style="stroke-width:0.1" /></svg>
