<svg xmlns="http://www.w3.org/2000/svg" viewBox="0 0 900 1080">
  <!-- Path 1 -->
  <path
    d="M 645.31916,1.8958684 C 625.20957,29.66607 612.54642,64.556275 597.07891,94.989158 563.68646,160.69007 531.31074,226.85999 498.77924,292.95971 
  465.43826,360.70418 431.73715,428.3308 397.5034,495.64384 c -10.23016,20.11534 -20.88192,40.02494 -31.16288,60.0982 -7.30958,14.27173 -14.38131,30.64423 
  -25.67572,42.37134 -15.29264,15.87842 -40.14111,15.88806 -55.15813,34.22527 -23.76551,29.01995 -26.52275,76.40227 -4.51328,107.23318 28.46094,39.86811 
  91.56161,49.45186 129.39873,16.293 21.48509,-18.82874 33.75633,-47.98606 30.9603,-76.3912 -1.03133,-10.47754 -7.48961,-21.40489 -6.59417,-31.81669 1.60101,-18.61541 
  12.94071,-37.6018 20.91828,-54.20623 65.1573,-135.61725 132.16771,-270.72722 194.27055,-407.72505 8.97764,-19.80445 18.90112,-39.21446 28.10444,-58.9198 3.94134,-8.43887 
  10.80078,-17.83914 12.29494,-27.103113 1.28515,-7.967909 -6.12626,-18.770769 -9.24941,-25.924719 C 673.8621,57.205612 666.60066,40.591263 658.76648,24.285394 655.16078,16.780671 
  651.79504,7.3535744 645.31916,1.8958684 m 8.39025,274.5662916 c -10.52037,24.84227 -24.48783,48.36222 -35.44956,73.06056 -3.42492,7.7169 -11.56154,18.56816 -11.55876,27.10311 
  0.004,11.15269 11.94577,27.55839 16.67318,37.70868 15.04295,32.29916 35.92669,66.05531 45.91704,100.16367 -31.76383,0 -64.29401,0.37918 -95.88859,3.33513 -9.43099,0.88236 
  -22.21074,-2.42717 -30.90855,1.98401 -6.94137,3.52037 -10.97482,17.4405 -13.94858,24.14076 -9.19071,20.70781 -25.02569,43.06216 -27.05931,65.99018 h 148.62731 43.14987 c 
  5.52775,0 13.77374,-1.49112 18.92247,0.71104 6.6723,2.85385 9.6138,15.70948 12.55111,21.67849 7.8505,15.95322 15.2961,32.12337 22.6303,48.31424 2.6958,5.95139 5.2229,16.08729 
  10.2001,20.50009 5.3613,4.75329 21.1302,1.88943 27.9888,1.88943 h 79.1081 l -39.5541,-89.5581 c 28.7973,-5.84056 60.5436,-4.71359 89.8956,-4.71359 -4.0163,-22.93172 -18.5454,-47.02062 -27.9047,
  -68.34697 -2.796,-6.37121 -5.5113,-19.20288 -12.9737,-21.53666 -6.6954,-2.09387 -14.5323,-0.49264 -21.4492,-0.95834 -17.5595,-1.18221 -35.2182,-1.56276 -52.7387,-3.22966 -10.6339,-1.01171 -22.0163,-0.83615 
  -29.4972,-9.67815 -11.8697,-14.02927 -18.8384,-35.48839 -27.1333,-51.7985 -20.6559,-40.61518 -39.88017,-81.936 -60.53713,-122.5532 -8.33933,-16.39742 -15.8179,-41.32226 -29.0625,-54.20622 Z"
    fill="none" stroke-width="10">
    <animate attributeName="stroke" from="none" to="black" dur="2s" begin="0s" fill="freeze" />
<animate attributeName="stroke-dasharray" 
         values="0,600; 600,0; 600,0" 
         keyTimes="0; 0.66; 1"
         dur="2s" 
         begin="0s" 
         repeatCount="indefinite" />
    <animate attributeName="stroke-dashoffset" from="600" to="0" dur="2s" begin="0s" repeatCount="indefinite" />
  </path>

  <!-- Path 2 -->
  <path
    d="  M 11.25587,627.6242 c 23.77869,-1.90943 47.2316,-15.34864 65.9234,-29.02347 39.51429,-28.90857 68.70173,-68.54742 105.47745,-100.26274 35.97828,-31.02759 80.50041,-52.20286 128.25099,-57.89601 19.85391,-2.36711 38.86706,-1.36115 58.73176,-1.36115 5.98934,0 18.13076,2.27393 23.20824,-1.21113 4.32929,-2.97152 6.60203,-10.86625 9.15416,-15.28642 8.72878,-15.11798 16.74754,-31.12688 23.63182,-47.13584 2.63929,-6.13753 7.15129,-16.26567 0.16277,-21.2048 -8.8864,-6.28044 -26.46772,-5.76331 -36.97927,-5.90285 -26.31018,-0.34918 -52.78646,-2.69972 -79.10809,-0.19548 C 205.21061,358.08623 112.60549,422.34557 56.39139,507.4278 33.49748,542.07864 12.14144,585.4426 11.25587,627.6242 M 114.3361,578.13157 c -22.12529,19.00321 -41.37652,40.68516 -65.9234,56.95219 -13.5497,8.9793 -37.70162,17.62552 -45.3325202,32.60591 -2.56248997,5.03048 -1.4747,12.2086 -1.40855,17.67594 0.20853,17.23448 4.00958,34.88481 6.8910703,51.84943 C 21.55594,813.71232 55.82271,881.25828 113.13749,935.13919 c 39.90515,37.51434 90.79488,65.79371 143.83289,80.67381 12.59249,3.5328 25.3776,6.599 38.35543,8.4261 4.15668,0.5851 11.58358,1.8621 14.35,-2.2268 4.77688,-7.0605 -2.96134,-21.3744 -5.99397,-27.90695 C 291.59959,968.07912 270.67546,943.1417 249.76116,923.50706 224.31476,899.61764 193.58567,882.45984 168.38072,858.38982 123.1375,815.18366 95.55126,751.75396 92.80834,690.07919 c -1.12495,-25.29437 5.066614,-51.27202 12.10815,-75.41735 2.97343,-10.19581 11.86858,-25.99131 9.41961,-36.53027 m 477.04573,61.27659 c 6.3593,49.47049 2.42586,97.40166 -17.8265,143.76433 -31.09499,71.18421 -101.22256,124.92487 -177.5465,140.2246 -29.5818,5.92989 -60.03158,7.59319 -89.89555,3.03964 -17.66245,-2.69311 -35.00954,-9.86022 -52.73873,-11.28388 20.26171,28.27885 50.67244,49.20444 71.40405,77.7741 5.64671,7.78165 9.69333,16.00025 13.51674,24.74635 1.41878,3.2454 2.74314,8.4267 6.44252,9.8481 3.39493,1.3045 8.15809,-0.3179 11.71693,-0.4037 12.04024,-0.29 23.95909,-1.4047 35.95822,-2.2694 61.46828,-4.4299 123.14461,-30.24035 171.40085,-67.5214 45.25229,-34.96033 78.51354,-77.76249 103.98197,-128.19696 5.7383,-11.36343 11.08968,-23.27383 15.07411,-35.35189 1.25889,-3.81612 3.75187,-10.8199 0.77137,-14.44441 -5.34201,-6.49629 -25.63486,-0.64077 -32.32911,1.04562 -32.83887,8.27265 -60.2553,26.70063 -91.09416,39.32351 23.83626,-22.95068 52.18298,-42.18513 82.70391,-55.54832 10.96048,-4.79888 21.99602,-9.13732 33.561,-12.29857 4.83898,-1.32275 13.45478,-1.87987 16.85447,-5.87745 4.6754,-5.49756 3.11554,-18.4328 4.03052,-25.26094 3.72399,-27.78998 -0.50383,-53.74979 -1.70727,-81.30933 H 591.38183 m -31.16379,180.29461 -1.19861,1.17839 z"
    fill="none" stroke-width="10">

    <animate attributeName="stroke" from="none" to="#001d7f" dur="2s" begin="0s" fill="freeze" />
<animate attributeName="stroke-dasharray" 
         values="0,600; 600,0; 600,0" 
         keyTimes="0; 0.66; 1"
         dur="2s" 
         begin="0s" 
         repeatCount="indefinite" />
    <animate attributeName="stroke-dashoffset" from="600" to="0" dur="2s" begin="0s" repeatCount="indefinite" />
  </path>
</svg>