<?xml version="1.0" encoding="UTF-8" standalone="no"?>
<svg
   viewBox="0 0 517.000000 263.000000"
   xml:space="preserve"
   version="1.1"
   id="svg12"
   sodipodi:docname="Logo_ARGOS-1 - CopiaR.svg"
   inkscape:version="1.4 (86a8ad7, 2024-10-11)"
   xmlns:inkscape="http://www.inkscape.org/namespaces/inkscape"
   xmlns:sodipodi="http://sodipodi.sourceforge.net/DTD/sodipodi-0.dtd"
   xmlns="http://www.w3.org/2000/svg"
   xmlns:svg="http://www.w3.org/2000/svg"><defs
   id="defs12" /><sodipodi:namedview
   id="namedview12"
   pagecolor="#ffffff"
   bordercolor="#000000"
   borderopacity="0.25"
   inkscape:showpageshadow="2"
   inkscape:pageopacity="0.0"
   inkscape:pagecheckerboard="0"
   inkscape:deskcolor="#d1d1d1"
   showgrid="false"
   inkscape:zoom="1.9623237"
   inkscape:cx="267.03036"
   inkscape:cy="128.16438"
   inkscape:window-width="1920"
   inkscape:window-height="1009"
   inkscape:window-x="-8"
   inkscape:window-y="-8"
   inkscape:window-maximized="1"
   inkscape:current-layer="g11" />
<g
   transform="translate(0.000000,263.000000) scale(0.100000,-0.100000)"
   fill="#000000"
   stroke="none"
   id="g11">
   <path
   d="M1429 2570 c-15 -30 -97 -205 -183 -389 l-157 -333 37 -79 c21 -44 40 -79 43 -79 3 0 70 144 149 320 l143 320 -3 147 -3 148 -26 -55z"
   fill="#001d7f"
   id="handlebar" />
<path
   d="M816 1285 c-236 -488 -250 -513 -279 -519 -42 -8 -94 -67 -102 -115 -9 -54 22 -123 67 -151 69 -42 165 -17 208 52 20 33 25 96 11 132 -5 14 49 139 201 465 115 245 211 456 214 467 5 19 -46 156 -65 176 -3 3 -118 -225 -255 -507z"
   fill="black"
   id="path1" />
<!--testo-->
<g
   id="text">
      <path
   d="M 1451.7478,920 H 1283 l -99,207 -100,208 -28,-60 c -60,-128 -60,-107 -1,-235 l 52,-115 -106,-3 -107,-3 -36,-79 -36,-80 h 180 180 l 36,-80 36,-80 h 89 c 102,0 99,-5 46,103 l -29,57 h 90.8222 z"
   id="LetterA" />
<path
   d="m 1457,1394 c -4,-4 -7,-112 -7,-241 V 920 l -1,-160 3,-157 3,-158 h 80 80 l 3,158 3,157 h 62 62 l 133,-160 134,-160 h 101 c 94,0 99,1 85,18 -8,9 -61,73 -118,142 -57,69 -112,135 -123,147 l -19,21 45,20 c 64,28 122,85 154,150 24,49 28,69 28,142 0,72 -4,92 -27,135 -28,54 -96,123 -145,149 -43,22 -147,38 -228,34 l -70,-3 v -80 -80 l 112,-5 c 111,-5 112,-5 147,-39 64,-62 71,-141 19,-210 -39,-51 -75,-61 -222,-61 h -131 l -2,238 -3,237 -75,3 c -42,1 -79,0 -83,-4 z"
   id="LetterR" />
   <g
   id="LetterG">
<path
   d="M2575 1303 c-46 -6 -126 -33 -165 -56 -47 -27 -136 -113 -167 -161 -110 -171 -89 -404 50 -553 102 -108 188 -149 335 -160 l82 -6 0 80 0 80 -76 6 c-181 14 -299 135 -299 307 1 92 33 168 97 225 67 62 117 78 248 83 l115 4 73 71 c39 39 72 75 72 79 0 8 -308 9 -365 1z"
   id="LetterG1" />
   <path
   d="M2595 840 l-80 -80 138 0 137 0 2 -192 3 -193 78 -3 77 -3 0 276 0 275 -138 0 -137 0 -80 -80z"
   id="LetterG2" />
</g>
<g
   id="LetterO">
<path
   d="M3361 1299 c-168 -28 -335 -186 -367 -346 l-6 -33 80 0 80 0 12 35 c18 53 101 139 162 166 78 34 184 32 256 -5 66 -34 125 -93 149 -151 l18 -45 82 0 82 0 -15 53 c-48 166 -201 299 -374 326 -74 12 -84 12 -159 0z"
   id="LetterO1" />
<path
   d="M2994 728 c14 -70 66 -160 125 -218 181 -177 456 -182 641 -13 63 58 112 135 134 211 l15 52 -82 0 -82 0 -19 -45 c-23 -57 -90 -125 -153 -156 -71 -34 -188 -33 -259 4 -60 30 -138 113 -154 162 l-12 35 -80 0 -80 0 6 -32z"
   id="LetterO2" />
   </g>
   <g
   id="LetterS">
   <path
   d="M4210 1324 c-68 -18 -150 -73 -182 -122 -40 -60 -51 -107 -46 -196 10 -189 117 -276 338 -276 l80 0 0 84 0 83 -83 5 c-46 3 -93 11 -104 18 -78 49 -65 189 20 225 18 7 65 17 105 20 l72 8 0 83 0 84 -72 -1 c-40 0 -98 -7 -128 -15z"
   id="LetterS2" />
   <path
   d="M4450 816 l0 -83 71 -7 c85 -8 132 -26 155 -60 33 -51 17 -146 -29 -176 -12 -8 -59 -17 -107 -20 l-85 -5 -3 -82 -3 -83 99 0 c56 0 119 6 146 14 100 30 157 103 177 224 10 62 10 81 -5 135 -22 80 -72 148 -129 176 -55 27 -165 51 -234 51 l-53 0 0 -84z"
   id="LetterS1" />
   </g>
</g>
<g
   id="front_wheel">
<path
   class="st1"
   d="M455 1196 c-217 -50 -395 -226 -440 -435 -7 -33 -7 -34 21 -27 53 13 121 66 204 156 110 121 172 152 313 158 l98 4 34 69 c22 42 31 70 24 74 -22 14 -195 14 -254 1zM132 765 c-29 -29 -70 -60 -92 -70 -39 -18 -40 -19 -40 -69 1 -211 131 -419 318 -511 57 -28 142 -55 175 -55 34 0 12 61 -52 140 l-36 45 35 -29 c46 -38 93 -93 114 -133 19 -38 35 -40 141 -18 193 41 356 180 426 365 l20 53 -42 -6 c-23 -3 -68 -19 -100 -35 -47 -23 -55 -25 -42 -9 24 26 91 64 145 83 50 17 58 33 58 119 0 74 -2 75 -97 75 l-86 0 7 -38 c15 -99 -39 -246 -122 -329 -76 -76 -163 -116 -267 -121 -56 -3 -99 1 -135 11 -30 9 -57 14 -62 11 -4 -3 -8 -1 -8 4 0 6 -19 21 -43 35 -62 36 -124 108 -160 185 -29 62 -32 75 -32 167 1 72 6 111 18 139 10 22 16 40 15 41 -2 1 -27 -21 -56 -50z"
   fill="#001d7f"
   id="path11" />
</g>
<!--ruota dietro-->
<g
   id="back_wheel">
<path
   class="st1"
   d="M4500 1101 l0 -89 88 -4 c67 -3 100 -10 146 -31 32 -15 60 -26 62 -25 1 2 -15 29 -37 62 -21 32 -46 82 -54 111 -15 49 -18 53 -53 59 -20 3 -63 6 -94 6 l-58 0 0 -89 M4744 1118 c4 -24 19 -70 34 -103 15 -33 27 -62 27 -65 0 -3 26 -31 58 -62 38 -38 69 -81 90 -125 28 -62 31 -78 31 -168 1 -135 -24 -203 -108 -292 -135 -146 -307 -179 -499 -98 -10 4 4 -15 32 -43 27 -29 60 -74 73 -101 l23 -50 70 0 c218 -1 425 129 524 329 22 47 44 106 47 133 l7 47 -44 -15 c-23 -9 -68 -34 -98 -57 l-56 -41 50 53 c28 28 74 65 103 82 52 30 52 30 52 78 0 77 -19 148 -62 240 -53 110 -150 210 -258 263 -96 49 -104 48 -96 -5  M3996 738 c-4 -13 -9 -59 -13 -104 -17 -232 115 -460 327 -562 47 -22 98 -43 114 -47 28 -6 29 -5 22 26 -10 50 -59 119 -142 200 -90 87 -116 126 -144 210 -17 48 -21 82 -19 143 l3 80 -71 38 c-71 38 -71 38 -77 16z"
   fill="#001d7f"
   id="path12" />
</g>
<text
   x="1150"
   y="60"
   fill="#001d7f"
   font-size="160"
   font-family="PROFESSIONAL"
   font-weight="bold"
   transform="scale(1, -1)"
   transform-origin="center"
   id="text11">
        <tspan
   font-weight="bold"
   fill="black"
   id="tspan11">URBAN MOBILITY</tspan> UNDER CONTROL
</text>

</g>


</svg>
